<svg width="22" height="22" viewBox="0 0 22 22" fill="none" xmlns="http://www.w3.org/2000/svg">
    <path d="M12.6463 3.79145C11.7458 2.86139 10.2542 2.86139 9.35361 3.79145L4.955 8.33421C4.70239 8.5951 4.53263 8.92493 4.46713 9.28213C3.93293 12.1953 3.8935 15.1776 4.35049 18.1039L4.51229 19.1399C4.56339 19.4671 4.84523 19.7083 5.17643 19.7083H8.24998C8.50311 19.7083 8.70831 19.5031 8.70831 19.25V12.8333H13.2916V19.25C13.2916 19.5031 13.4968 19.7083 13.75 19.7083H16.8235C17.1547 19.7083 17.4365 19.4671 17.4876 19.1399L17.6494 18.1039C18.1064 15.1776 18.067 12.1953 17.5328 9.28213C17.4673 8.92493 17.2975 8.5951 17.0449 8.33421L12.6463 3.79145Z" fill="#598BED"/>
</svg>
