<svg width="22" height="22" viewBox="0 0 22 22" fill="none" xmlns="http://www.w3.org/2000/svg">
    <path fill-rule="evenodd" clip-rule="evenodd"
        d="M10.6354 17.083C10.7527 17.1534 10.8781 17.1845 11 17.183C11.1219 17.1845 11.2473 17.1534 11.3646 17.083L12.4052 16.4586C14.4462 15.234 16.9423 15.034 19.1522 15.918C19.9674 16.2441 20.8542 15.6437 20.8542 14.7657V4.07837C20.8542 3.54859 20.5316 3.07218 20.0397 2.87542C17.1934 1.73689 13.9785 1.99449 11.3497 3.57172L11 3.78156L10.6503 3.57172C8.02154 1.99449 4.8066 1.73689 1.96027 2.87542C1.46838 3.07218 1.14583 3.54859 1.14583 4.07837V14.7657C1.14583 15.6437 2.03261 16.2441 2.84782 15.918C5.05772 15.034 7.55381 15.234 9.59476 16.4586L10.6354 17.083ZM2.52083 4.1323V14.5702C5.08364 13.6095 7.94914 13.8677 10.3022 15.2795L10.3125 15.2857V4.97258L9.94283 4.75078C7.69793 3.40383 4.95581 3.17619 2.52083 4.1323ZM11.6978 15.2795L11.6875 15.2857V4.97258L12.0572 4.75078C14.3021 3.40383 17.0442 3.17619 19.4792 4.1323V14.5702C16.9164 13.6095 14.0509 13.8677 11.6978 15.2795Z"
        fill="#6D747A" />
    <path
        d="M8.50223 17.4554C6.64703 16.3732 4.35297 16.3732 2.49777 17.4554L2.40359 17.5103C2.07561 17.7016 1.96483 18.1226 2.15615 18.4506C2.34747 18.7785 2.76844 18.8893 3.09641 18.698L3.19059 18.6431C4.61767 17.8106 6.38233 17.8106 7.80941 18.6431L8.80606 19.2244C10.1618 20.0153 11.8382 20.0153 13.1939 19.2244L14.1906 18.6431C15.6177 17.8106 17.3823 17.8106 18.8094 18.6431L18.9036 18.698C19.2316 18.8893 19.6525 18.7785 19.8438 18.4506C20.0352 18.1226 19.9244 17.7016 19.5964 17.5103L19.5022 17.4554C17.647 16.3732 15.353 16.3732 13.4978 17.4554L12.5011 18.0368C11.5735 18.5779 10.4265 18.5779 9.49888 18.0368L8.50223 17.4554Z"
        fill="#6D747A" />
</svg>
